<?xml version="1.0" encoding="utf-8"?>
<!-- Generator: Adobe Illustrator 16.0.0, SVG Export Plug-In . SVG Version: 6.00 Build 0)  -->
<!DOCTYPE svg PUBLIC "-//W3C//DTD SVG 1.1//EN" "http://www.w3.org/Graphics/SVG/1.1/DTD/svg11.dtd">
<svg version="1.1" id="Calque_1" xmlns="http://www.w3.org/2000/svg" xmlns:xlink="http://www.w3.org/1999/xlink" x="0px" y="0px"
	 width="100px" height="100px" viewBox="0 0 100 100" enable-background="new 0 0 100 100" xml:space="preserve">
<g>
	<linearGradient id="SVGID_1_" gradientUnits="userSpaceOnUse" x1="-3.3154" y1="102.0117" x2="96.757" y2="3.467">
		<stop  offset="0" style="stop-color:#951B81"/>
		<stop  offset="1" style="stop-color:#29235C"/>
	</linearGradient>
	<path fill="url(#SVGID_1_)" stroke="#FFFFFF" stroke-miterlimit="10" d="M49.695,29.199c-11.139,0-20.236,8.886-20.591,19.939
		c-2.681,1.406-4.517,4.215-4.517,7.449c0,4.634,3.772,8.404,8.406,8.404c0.84,0,1.652-0.125,2.419-0.357
		c3.706,3.575,8.74,5.781,14.283,5.781c11.364,0,20.608-9.243,20.608-20.608C70.304,38.443,61.06,29.199,49.695,29.199z
		 M29.761,56.587c0-1.784,1.45-3.233,3.232-3.233c1.783,0,3.232,1.449,3.232,3.233c0,1.78-1.45,3.231-3.232,3.231
		C31.211,59.818,29.761,58.367,29.761,56.587z M49.695,65.243c-3.792,0-7.264-1.377-9.954-3.653c1.041-1.4,1.656-3.132,1.656-5.003
		c0-4.18-3.064-7.653-7.063-8.297c0.765-7.802,7.361-13.919,15.36-13.919c8.513,0,15.437,6.924,15.437,15.437
		C65.132,58.319,58.208,65.243,49.695,65.243z"/>
	<linearGradient id="SVGID_2_" gradientUnits="userSpaceOnUse" x1="-3.3149" y1="102.0088" x2="96.7556" y2="3.4659">
		<stop  offset="0" style="stop-color:#951B81"/>
		<stop  offset="1" style="stop-color:#29235C"/>
	</linearGradient>
	<path fill="url(#SVGID_2_)" stroke="#FFFFFF" stroke-miterlimit="10" d="M79.767,32.584c1.127-1.526,1.795-3.412,1.795-5.452
		c0-5.068-4.124-9.192-9.191-9.192c-2.04,0-3.928,0.668-5.454,1.797c-5.185-2.984-11.077-4.583-17.221-4.583
		c-9.256,0-17.958,3.604-24.502,10.15c-6.545,6.544-10.15,15.247-10.15,24.502c0,9.256,3.605,17.958,10.15,24.503
		c6.545,6.546,15.247,10.149,24.502,10.149s17.958-3.604,24.503-10.149c6.545-6.545,10.15-15.247,10.15-24.503
		C84.349,43.664,82.75,37.77,79.767,32.584z M76.39,27.132c0,2.217-1.804,4.021-4.02,4.021c-2.217,0-4.021-1.804-4.021-4.021
		c0-2.217,1.805-4.019,4.021-4.019C74.586,23.113,76.39,24.916,76.39,27.132z M70.54,70.652c-5.567,5.567-12.97,8.635-20.845,8.635
		c-7.874,0-15.276-3.067-20.845-8.635c-5.568-5.567-8.634-12.971-8.634-20.846c0-7.874,3.066-15.276,8.634-20.845
		c5.569-5.568,12.972-8.634,20.845-8.634c4.998,0,9.802,1.241,14.071,3.57c-0.38,1.007-0.59,2.097-0.59,3.235
		c0,5.07,4.124,9.194,9.193,9.194c1.138,0,2.229-0.208,3.234-0.589c2.329,4.269,3.57,9.073,3.57,14.07
		C79.175,57.682,76.109,65.085,70.54,70.652z"/>
	<linearGradient id="SVGID_3_" gradientUnits="userSpaceOnUse" x1="-1.0386" y1="104.3223" x2="99.0326" y2="5.7788">
		<stop  offset="0" style="stop-color:#951B81"/>
		<stop  offset="1" style="stop-color:#29235C"/>
	</linearGradient>
	<path fill="url(#SVGID_3_)" stroke="#FFFFFF" stroke-miterlimit="10" d="M98.392,49.807c0-13.007-5.065-25.236-14.264-34.433
		C74.932,6.177,62.703,1.112,49.695,1.112c-13.006,0-25.235,5.065-34.433,14.262S1,36.799,1,49.807
		C1,62.814,6.065,75.043,15.263,84.24s21.426,14.263,34.433,14.263c11.79,0,22.939-4.163,31.771-11.791
		c1.321,0.704,2.827,1.104,4.424,1.104c5.203,0,9.436-4.232,9.436-9.436c0-2.381-0.89-4.557-2.352-6.22
		C96.513,65.334,98.392,57.716,98.392,49.807z M18.92,80.582C10.7,72.363,6.172,61.433,6.172,49.807S10.7,27.252,18.92,19.031
		c8.22-8.219,19.15-12.748,30.775-12.748c11.627,0,22.556,4.529,30.777,12.748c8.22,8.221,12.746,19.15,12.746,30.776
		c0,6.9-1.6,13.552-4.614,19.539c-0.86-0.258-1.771-0.397-2.714-0.397c-5.203,0-9.435,4.232-9.435,9.433
		c0,1.72,0.464,3.331,1.27,4.72c-7.834,6.62-17.654,10.229-28.03,10.229C38.07,93.329,27.141,88.804,18.92,80.582z M85.891,82.644
		c-2.351,0-4.263-1.91-4.263-4.263c0-2.349,1.912-4.26,4.263-4.26c2.35,0,4.263,1.911,4.263,4.26
		C90.153,80.733,88.24,82.644,85.891,82.644z"/>
</g>
</svg>
