<?xml version="1.0" encoding="utf-8"?>
<!-- Generator: Adobe Illustrator 16.0.0, SVG Export Plug-In . SVG Version: 6.00 Build 0)  -->
<!DOCTYPE svg PUBLIC "-//W3C//DTD SVG 1.1//EN" "http://www.w3.org/Graphics/SVG/1.1/DTD/svg11.dtd">
<svg version="1.1" id="Calque_1" xmlns="http://www.w3.org/2000/svg" xmlns:xlink="http://www.w3.org/1999/xlink" x="0px" y="0px"
	 width="100px" height="100px" viewBox="0 0 100 100" enable-background="new 0 0 100 100" xml:space="preserve">
<g>
	<linearGradient id="SVGID_1_" gradientUnits="userSpaceOnUse" x1="1.9741" y1="99.0078" x2="99.9211" y2="1.0608">
		<stop  offset="0" style="stop-color:#951B81"/>
		<stop  offset="1" style="stop-color:#29235C"/>
	</linearGradient>
	<path fill="url(#SVGID_1_)" stroke="#FFFFFF" stroke-miterlimit="10" d="M74.388,26.593c-1.681-1.681-3.915-2.606-6.291-2.606
		s-4.61,0.925-6.291,2.606c-1.68,1.68-2.605,3.915-2.605,6.291s0.926,4.611,2.605,6.291c1.681,1.68,3.915,2.605,6.291,2.605l0,0
		c2.376,0,4.61-0.925,6.291-2.605s2.605-3.915,2.605-6.291S76.068,28.273,74.388,26.593z M70.85,35.636
		c-0.736,0.735-1.712,1.14-2.753,1.14l0,0c-1.039,0-2.017-0.405-2.751-1.14c-0.736-0.735-1.141-1.712-1.141-2.752
		c0-1.04,0.404-2.017,1.141-2.752c0.734-0.735,1.712-1.141,2.751-1.141s2.017,0.405,2.753,1.141
		C72.366,31.648,72.366,34.118,70.85,35.636z"/>
	<g>
		<linearGradient id="SVGID_2_" gradientUnits="userSpaceOnUse" x1="-6.5747" y1="90.457" x2="91.3713" y2="-7.489">
			<stop  offset="0" style="stop-color:#951B81"/>
			<stop  offset="1" style="stop-color:#29235C"/>
		</linearGradient>
		<path fill="url(#SVGID_2_)" stroke="#FFFFFF" stroke-miterlimit="10" d="M5.926,80.458c-0.641,0-1.28-0.244-1.77-0.732
			c-0.977-0.978-0.977-2.562,0-3.539l14.469-14.468c0.977-0.978,2.561-0.978,3.539,0c0.977,0.977,0.977,2.562,0,3.538L7.695,79.726
			C7.206,80.214,6.566,80.458,5.926,80.458z"/>
	</g>
	<g>
		<linearGradient id="SVGID_3_" gradientUnits="userSpaceOnUse" x1="1.9756" y1="99.0059" x2="99.9194" y2="1.062">
			<stop  offset="0" style="stop-color:#951B81"/>
			<stop  offset="1" style="stop-color:#29235C"/>
		</linearGradient>
		<path fill="url(#SVGID_3_)" stroke="#FFFFFF" stroke-miterlimit="10" d="M9.161,94.322c-0.64,0-1.28-0.244-1.769-0.733
			c-0.978-0.977-0.978-2.561,0-3.538L22.473,74.97c0.978-0.978,2.561-0.978,3.538,0s0.977,2.563,0,3.539l-15.08,15.08
			C10.441,94.078,9.802,94.322,9.161,94.322z"/>
	</g>
	<g>
		<linearGradient id="SVGID_4_" gradientUnits="userSpaceOnUse" x1="10.5239" y1="107.5566" x2="108.4717" y2="9.6088">
			<stop  offset="0" style="stop-color:#951B81"/>
			<stop  offset="1" style="stop-color:#29235C"/>
		</linearGradient>
		<path fill="url(#SVGID_4_)" stroke="#FFFFFF" stroke-miterlimit="10" d="M23.024,97.557c-0.64,0-1.28-0.244-1.769-0.731
			c-0.978-0.978-0.978-2.562,0-3.539l14.469-14.47c0.976-0.976,2.561-0.977,3.538,0c0.978,0.978,0.978,2.563,0,3.539l-14.468,14.47
			C24.305,97.313,23.665,97.557,23.024,97.557z"/>
	</g>
	<linearGradient id="SVGID_5_" gradientUnits="userSpaceOnUse" x1="1.9741" y1="99.0068" x2="99.92" y2="1.061">
		<stop  offset="0" style="stop-color:#951B81"/>
		<stop  offset="1" style="stop-color:#29235C"/>
	</linearGradient>
	<path fill="url(#SVGID_5_)" stroke="#FFFFFF" stroke-miterlimit="10" d="M96.916,4.064c-0.566-0.568-1.374-0.83-2.166-0.702
		C94.46,3.41,87.523,4.549,78.072,8.16c-5.544,2.118-10.812,4.654-15.656,7.54c-5.949,3.542-11.275,7.625-15.838,12.136
		l-18.897,3.679c-0.487,0.095-0.936,0.333-1.288,0.684L9.272,49.263c-0.78,0.777-0.959,1.974-0.444,2.945
		c0.44,0.829,1.297,1.329,2.209,1.329c0.159,0,0.319-0.016,0.479-0.046l19.311-3.76c-1.258,2.467-2.434,5.027-3.525,7.681
		c-0.384,0.934-0.169,2.007,0.545,2.721l4.73,4.731l-4.395,4.395c-0.977,0.978-0.977,2.562,0,3.539
		c0.489,0.488,1.129,0.732,1.77,0.732c0.64,0,1.28-0.244,1.769-0.732l4.395-4.396l4.73,4.73c0.479,0.479,1.119,0.733,1.77,0.733
		c0.321,0,0.644-0.062,0.952-0.188c2.654-1.091,5.214-2.268,7.68-3.524L47.49,89.465c-0.21,1.08,0.31,2.171,1.282,2.688
		c0.372,0.196,0.773,0.292,1.173,0.292c0.65,0,1.292-0.253,1.772-0.736l17.065-17.12c0.351-0.352,0.589-0.8,0.685-1.288
		l3.678-18.896c4.512-4.563,8.595-9.889,12.138-15.839c2.884-4.845,5.42-10.113,7.539-15.657c3.61-9.451,4.749-16.386,4.797-16.677
		C97.745,5.438,97.484,4.632,96.916,4.064z M18.622,47.01l10.764-10.73l11.582-2.254c-2.512,3.09-4.842,6.424-6.981,9.993
		L18.622,47.01z M64.7,71.595L53.971,82.359l2.99-15.365c3.57-2.139,6.903-4.469,9.994-6.98L64.7,71.595z M88.1,21.242
		c-3.16,8.239-8.984,20.118-18.789,29.924c-4.514,4.514-9.77,8.525-15.706,12c-0.104,0.052-0.209,0.112-0.305,0.18
		c-3.178,1.842-6.548,3.53-10.103,5.06l-3.542-3.541l7.148-7.147c0.978-0.977,0.978-2.562,0-3.538c-0.977-0.979-2.561-0.979-3.539,0
		l-7.147,7.146l-3.541-3.541c1.529-3.556,3.217-6.926,5.06-10.104c0.067-0.097,0.125-0.198,0.178-0.303
		c3.474-5.937,7.486-11.193,12-15.708c9.805-9.805,21.684-15.629,29.923-18.788c5.007-1.921,9.315-3.118,12.165-3.805
		C91.216,11.926,90.02,16.236,88.1,21.242z"/>
</g>
</svg>
