<?xml version="1.0" encoding="utf-8"?>
<!-- Generator: Adobe Illustrator 16.0.0, SVG Export Plug-In . SVG Version: 6.00 Build 0)  -->
<!DOCTYPE svg PUBLIC "-//W3C//DTD SVG 1.1//EN" "http://www.w3.org/Graphics/SVG/1.1/DTD/svg11.dtd">
<svg version="1.1" id="Calque_1" xmlns="http://www.w3.org/2000/svg" xmlns:xlink="http://www.w3.org/1999/xlink" x="0px" y="0px"
	 width="100px" height="100px" viewBox="0 0 100 100" enable-background="new 0 0 100 100" xml:space="preserve">
<g>
	<linearGradient id="SVGID_1_" gradientUnits="userSpaceOnUse" x1="4.2822" y1="100.3457" x2="99.3973" y2="-0.1387">
		<stop  offset="0" style="stop-color:#951B81"/>
		<stop  offset="1" style="stop-color:#29235C"/>
	</linearGradient>
	<path fill="url(#SVGID_1_)" stroke="#FFFFFF" stroke-miterlimit="10" d="M96.197,38.773h-7.085
		c-2.012-5.947-5.379-11.398-9.948-15.969c-4.98-4.98-11.007-8.531-17.582-10.456V5.103c0-1.435-1.162-2.598-2.597-2.598H40.809
		c-1.434,0-2.598,1.163-2.598,2.598v7.246c-6.575,1.925-12.601,5.477-17.581,10.456c-4.569,4.571-7.937,10.021-9.947,15.969H3.598
		C2.163,38.773,1,39.936,1,41.371v18.175c0,1.436,1.163,2.598,2.598,2.598h6.407c1.6,4.813,4.482,8.686,8.622,11.579
		c0.438,4.266,1.485,7.982,3.125,11.06c1.721,3.23,4.141,5.861,7.19,7.819c5.005,3.214,11.665,4.71,20.954,4.71
		c9.307,0,15.973-1.503,20.981-4.727c3.052-1.966,5.471-4.605,7.188-7.848c1.627-3.068,2.665-6.769,3.102-11.015
		c4.14-2.894,7.021-6.766,8.622-11.579h6.408c1.435,0,2.597-1.162,2.597-2.598V41.371C98.794,39.936,97.632,38.773,96.197,38.773z
		 M8.822,56.95H6.194V43.967h3.103c-0.521,2.641-0.788,5.352-0.788,8.103C8.509,53.772,8.614,55.398,8.822,56.95z M43.406,7.7
		h12.983v3.488c-2.128-0.333-4.297-0.505-6.492-0.505c-2.194,0-4.362,0.173-6.491,0.505V7.7z M49.897,92.117
		c-15.494,0-23.229-4.511-25.551-15.324c6.274,2.555,14.514,3.757,25.551,3.757c11.039,0,19.279-1.202,25.552-3.757
		C73.127,87.606,65.388,92.117,49.897,92.117z M77.797,69.736c-0.338,0.124-0.644,0.319-0.9,0.566
		c-0.263,0.155-0.529,0.311-0.804,0.458c-5.803,3.136-14.127,4.596-26.196,4.596c-12.069,0-20.393-1.46-26.195-4.596
		c-6.729-3.634-9.999-9.748-9.999-18.69c0-19.957,16.237-36.194,36.194-36.194c19.958,0,36.196,16.237,36.196,36.194
		C86.093,60.22,83.373,66.02,77.797,69.736z M93.6,56.95h-2.628c0.21-1.552,0.313-3.178,0.313-4.88c0-2.751-0.267-5.462-0.787-8.103
		H93.6V56.95z"/>
	<linearGradient id="SVGID_2_" gradientUnits="userSpaceOnUse" x1="0.5615" y1="96.8223" x2="95.6759" y2="-3.6614">
		<stop  offset="0" style="stop-color:#951B81"/>
		<stop  offset="1" style="stop-color:#29235C"/>
	</linearGradient>
	<path fill="url(#SVGID_2_)" stroke="#FFFFFF" stroke-miterlimit="10" d="M70.436,29.32c-5.521-4.29-12.816-6.65-20.539-6.65
		c-7.723,0-15.016,2.361-20.538,6.65c-5.715,4.439-8.863,10.393-8.863,16.764c0,2.922,0.662,5.301,1.972,7.078
		c0.662,0.898,1.87,2.232,4.694,3.417c4.641,1.948,12.08,2.896,22.736,2.896c10.658,0,18.095-0.947,22.737-2.896
		c2.823-1.185,4.03-2.519,4.694-3.417c1.308-1.777,1.972-4.156,1.972-7.078C79.3,39.712,76.151,33.759,70.436,29.32z M73.146,50.083
		c-0.189,0.256-0.694,0.94-2.522,1.708c-3.938,1.652-10.911,2.49-20.727,2.49c-9.814,0-16.788-0.838-20.727-2.49
		c-1.828-0.768-2.331-1.451-2.521-1.708c-0.628-0.852-0.96-2.235-0.96-3.999c0-4.731,2.436-9.229,6.857-12.662
		c4.614-3.585,10.777-5.559,17.351-5.559c6.575,0,12.737,1.973,17.353,5.559c4.421,3.434,6.855,7.931,6.855,12.662
		C74.105,47.848,73.773,49.23,73.146,50.083z"/>
</g>
</svg>
